<svg width="32" height="32" viewBox="0 0 32 32" fill="none" xmlns="http://www.w3.org/2000/svg">
<path d="M23.3308 19.216C23.0112 19.0562 20.9338 18.0974 20.6142 17.9376C20.2946 17.7778 19.975 17.7778 19.6554 18.0974C19.3358 18.417 18.6966 19.3758 18.377 19.6954C18.2172 20.015 17.8976 20.015 17.578 19.8552C16.4594 19.3758 15.3408 18.7366 14.382 17.9376C13.583 17.1386 12.784 16.1798 12.1448 15.221C11.985 14.9014 12.1448 14.5818 12.3046 14.422C12.4644 14.2622 12.6242 13.9426 12.9438 13.7828C13.1036 13.623 13.2634 13.3034 13.2634 13.1436C13.4232 12.9838 13.4232 12.6642 13.2634 12.5044C13.1036 12.3446 12.3046 10.427 11.985 9.62797C11.8252 8.50936 11.5056 8.50936 11.186 8.50936C11.0262 8.50936 10.7066 8.50936 10.387 8.50936C10.0674 8.50936 9.58802 8.82896 9.42822 8.98876C8.46941 9.94757 7.99001 11.0662 7.99001 12.3446C8.14981 13.7828 8.62921 15.221 9.58802 16.4994C11.3458 19.0562 13.583 21.1336 16.2996 22.412C17.0986 22.7316 17.7378 23.0512 18.5368 23.211C19.3358 23.5306 20.1348 23.5306 21.0936 23.3708C22.2122 23.211 23.171 22.412 23.8102 21.4532C24.1298 20.814 24.1298 20.1748 23.97 19.5356C23.97 19.5356 23.6504 19.3758 23.3308 19.216ZM27.3258 4.67416C21.0936 -1.55805 11.0262 -1.55805 4.79401 4.67416C-0.319601 9.78777 -1.2784 17.618 2.2372 23.8502L0 32L8.46941 29.7628C10.8664 31.0412 13.4232 31.6804 15.98 31.6804C24.769 31.6804 31.8003 24.6492 31.8003 15.8602C31.9601 11.7054 30.2022 7.71036 27.3258 4.67416ZM23.0112 27.0462C20.9338 28.3246 18.5368 29.1236 15.98 29.1236C13.583 29.1236 11.3458 28.4844 9.26842 27.3658L8.78901 27.0462L3.83521 28.3246L5.11361 23.5306L4.79401 23.0512C0.958801 16.6592 2.8764 8.66916 9.10861 4.67416C15.3408 0.679151 23.3308 2.75655 27.166 8.82896C31.0012 15.0612 29.2434 23.211 23.0112 27.0462Z" fill="white"/>
</svg>
